<svg xmlns="http://www.w3.org/2000/svg" viewBox="0 0 64 64">
  <defs>
    <linearGradient id="g" x1="0" y1="0" x2="1" y2="1">
      <stop offset="0%" stop-color="#2563eb"/>
      <stop offset="100%" stop-color="#22c55e"/>
    </linearGradient>
  </defs>
  <rect width="64" height="64" rx="14" fill="#0f172a"/>
  <path d="M32 10c-3.5 0-6 2.6-6.6 6.2-.4 2.4-.2 4.8.6 7-2.6 1-4.4 2.6-5.4 5-1.2 2.8-1 6.6.6 10.4 1.2 2.9 1 5-1 7.6-.8 1-.4 2 .8 2h9c.8 0 1.3-.5 1.4-1.2l.4-3c.1-.6.6-1 1.2-1s1.1.4 1.2 1l.4 3c.1.7.6 1.2 1.4 1.2h9c1.2 0 1.6-1 .8-2-2-2.6-2.2-4.7-1-7.6 1.6-3.8 1.8-7.6.6-10.4-1-2.4-2.8-4-5.4-5 .8-2.2 1-4.6.6-7-.6-3.6-3.1-6.2-6.6-6.2z" fill="url(#g)"/>
  <circle cx="28.5" cy="24" r="1.8" fill="#0f172a"/>
  <circle cx="35.5" cy="24" r="1.8" fill="#0f172a"/>
  <path d="M29 30c1 1 3 1 4 0" stroke="#0f172a" stroke-width="1.4" stroke-linecap="round" fill="none"/>
</svg>
